<?xml version="1.0" standalone="no"?>
<!--XML声明，是否独立（包含引用）-->

<!DOCTYPE svg PUBLIC "-//W3C//DTD SVG 1.1//EN" 
"http://www.w3.org/Graphics/SVG/1.1/DTD/svg11.dtd">
<!--外部文件引用-->

<svg width="100%" height="100%" version="1.1"
xmlns="http://www.w3.org/2000/svg"
xmlns:xlink="http://www.w3.org/1999/xlink">
<!--xmlns 属性可定义 SVG 命名空间。-->

<circle cx="100" cy="50" r="40" stroke="black"
stroke-width="2" fill="red"/>
<!--圆形***cx 和 cy 属性定义圆中心的 x 和 y 坐标。stroke 和 stroke-width 属性控制如何显示形状的轮廓。-->

<line x1="0" y1="0" x2="300" y2="30"
style="stroke:rgb(99,99,99);stroke-width:2"/>
<!--线条-->

<rect x="200" y="20" rx="20" ry="20" width="250"
height="100" style="fill:red;stroke:black;
stroke-width:5;opacity:0.5"/>
<!--矩形***rx,ry圆角幅度，opacity透明度-->

<text x="500" y="10" fill="black">aha</text>
<defs>
    <path id="path1" d="M75,20 a1,1 0 0,0 100,0" />
  </defs><!--SVG路径格式，a为椭圆弧-->
  <text x="10" y="100" style="fill:black;">
    <textPath xlink:href="#path1">I love SVG I love SVG</textPath>
  </text>
<!--文本-->

 <!-- Created with Method Draw - http://github.com/duopixel/Method-Draw/ -->
  <g >
  <path d="m257.5,128.66667c0,0 0,2 0,2c0,3 -1,4 -1,6c0,2 -0.4588,2.69344 -1,4c-0.76537,1.84776 -0.48625,2.82375 -1,5c-0.22975,0.97325 0,3 0,4c0,3 0,5 0,6c0,1 0,3 0,3c0,1 0,2 0,2c0,1 -0.29454,2.34619 2,4c1.814,1.30745 4.0535,2.5405 6,3c2.17624,0.51375 3.82376,2.48625 6,3c3.89301,0.91901 5.44806,0.42281 8,2c1.9021,1.17557 2,2 4,2c1,0 2,0 4,0c1,0 3.54916,-0.95517 7,-2c0.95709,-0.28978 3,-2 4,-3c1,-1 2.07611,-2.61731 3,-3c2.61313,-1.0824 3,-4 5,-6c2,-2 2.77023,-3.02675 3,-4c0.51373,-2.17625 0.61731,-2.07613 1,-3c0.5412,-1.30656 1,-3 1,-4c0,-1 1,-2 1,-4c0,-3 0,-5 0,-6c0,-2 0,-3 0,-3c0,-1 -1,-2 -1,-3c0,-1 -2.4588,-2.69344 -3,-4c-0.38269,-0.92387 0,-1 -1,-2.00001c0,0 -2,-1 -2,-1c-1,-1 -2.58578,-0.58578 -4,-2c-0.70709,-0.70711 -2.58578,-0.58578 -4,-2c-0.70709,-0.70711 -2,-1 -2,-1c-1,0 -2,-1 -3,-1c-1,0 -1,0 -3,0c-1,0 -2,0 -4,-1c0,0 -2,0 -2,0c-1,0 -3,0 -4,0c-1,0 -2,0 -3,0c-2,0 -3,0 -5,0c-1,0 -3,0 -4,0c-2,0 -2.07611,0.61732 -3,1c-1.30655,0.5412 -1.4588,1.69344 -2,3c-0.38269,0.92388 0,2 0,4c0,1.00001 0,1.00001 0,2.00001l0,1" id="svg_2" fill-opacity="null" stroke-opacity="null" stroke-width="1.5" stroke="#000" fill="none"/>
  <path d="m254.5,99.66666c0,-1 0.49345,-1.87856 1,-5c0.32036,-1.97417 3.4733,-8.29366 7,-14c2.62866,-4.25326 5.1731,-6.85273 6,-8c2.6149,-3.62798 3,-4 5,-4c1,0 2,0 3,0c1,0 4.0535,-0.4595 6,0c2.17624,0.51374 3.1731,0.85273 4,2c1.30746,1.814 1,5 1,8c0,4 0,5 0,7c0,1 1,0 3,-1c4,-2 10.54916,-4.95517 14,-6c3.82837,-1.15913 12,-1 16,-1c3,0 6,0 7,0c1,0 1,1 1,3c0,1 0,4 0,6c0,1 0,2 0,2c-2,0 -3,0 -4,0c-1,0 -2.29291,-0.70711 -3,0c-1.41422,1.41422 2.89343,2.99747 17,4c12.96729,0.92155 23.81641,2.3744 31,7c1.18903,0.76563 2,1 2,2c0,1 1,5 1,7c0,5 0,8 0,12c0,2 -1.69345,4.4588 -3,5c-2.77164,1.14805 -5,0 -7,0c0,0 -2,0 -2,0c-2,-1 -3,-1 -5,-1c-3,0 -3,0 -4,0c-2,0 -3,0 -5,0c0,0 -1.87869,-2.12132 -4,0c-0.70709,0.70711 2.0979,1.82442 4,3c4.25327,2.62865 6.87766,7.06602 8,9.00001c1.80972,3.11848 3.48627,3.82375 4,6c0.4595,1.9465 0,4 0,6c0,2 0.57956,4.08582 0,6c-1.04483,3.45085 -2.0979,4.82443 -4,6c-0.85065,0.52573 -2,0 -3,0c-1,0 -2.69254,-0.186 -4,-2c-0.8269,-1.14726 -2.29291,-1.29289 -3,-2c-1.41422,-1.41422 -2.29291,-0.70711 -3,0c-0.70709,0.70711 -0.76538,2.15224 0,4c1.0824,2.61313 3.52704,5.76425 6,12c3.84879,9.70499 3,14 3,17c0,3 0,5 0,8c0,1 0.18735,3.2068 -2,5c-2.78833,2.28587 -12.04468,4.76137 -18,6c-4.03671,0.83958 -8,2 -10,2c-1,0 -2.5405,-0.0535 -3,-2c-0.51373,-2.17625 -3,-4 -3,-6c0,-1 0,-2 0,-2c0,-1 -2.56393,-0.63226 -6,3c-4.95557,5.23853 -9.72961,12.22885 -14,17c-3.77267,4.21509 -8.61105,5.92807 -11,8c-1.68924,1.46507 -3,2 -6,2c-1,0 -3.88855,-1.19409 -9,-4c-3.92029,-2.15204 -8,-4 -12,-8c-2,-2 -3,-5 -3,-6c0,-2 -0.48625,-3.82375 -1,-6c-0.4595,-1.9465 0,-2 0,-3c0,-1 1,-3 0,-3c-1,0 -2.70425,4.4007 -8,8c-6.66795,4.53194 -11.9258,4.49756 -17,5c-3.98053,0.39415 -7.10341,0.09367 -8,-1c-2.28587,-2.78833 -4,-6 -5,-9c-1,-3 -1.48625,-6.82375 -2,-9c-0.68925,-2.91975 0,-6 0,-8c0,-2 0.0535,-3.5405 2,-4c2.17625,-0.51375 2,-1 3,-1c1,0 1.70711,-0.29289 1,-1c-0.70711,-0.70711 -2.15688,-1.5797 -8,-4c-4.13171,-1.71141 -11.74675,-5.37134 -16,-8c-3.80423,-2.35114 -6,-4 -8,-6c-2,-2 -3.71022,-4.04291 -4,-5c-1.04483,-3.45085 -2,-4 -2,-5c0,0 -1.17892,-2.29869 2,-4c1.76335,-0.94371 3.82375,-0.48625 6,-1c0.97325,-0.22975 4,0 6,0c4,0 6,0 8,0c1,0 2,0 2,1c0,0 2,1 2,3c0,1 0,3 0,3c1,1 2,0 2,-4c0,-6 -5.03857,-13.11638 -10,-20c-2.61491,-3.62799 -3,-6.00001 -4,-8.00001c-1,-2 -1.4588,-3.69344 -2,-5c-0.38269,-0.92388 -0.11504,-1.27431 2,-2c4.82303,-1.65482 6.22836,0.14805 9,-1c1.30656,-0.5412 2.07613,-1.38268 3,-1c1.30656,0.5412 2,1 2,3c0,0 1,2 2,4c0,0 0,-1 0,-4c0,-7 -3.87094,-23.05358 -6,-28c-5.66066,-13.15131 -6,-16 -6,-19c0,-2 0,-3 0,-5c0,0 0,0 1,0c1,0 3,0 7,0c3,0 6.03874,-0.48055 9,0c3.12144,0.50654 4.47427,2.14935 5,3c1.17557,1.90211 3.70546,1.34619 6,3c3.62799,2.61491 5.93414,3.14429 8,4c2.92157,1.21015 4,2 5,3c1,1 3.85274,3.1731 5,4c1.814,1.30745 4,2 4,3c0,1 1,1 2,2c0,0 0,1 0,2c0,1 0,2 1,3l1,1l0,1" id="svg_3" fill-opacity="null" stroke-opacity="null" stroke-width="1.5" stroke="#000" fill="none"/>
  <path d="m281.5,227.66667c0,1 -0.08075,3.98453 -1,9c-1.09662,5.98309 -2,13 -2,18c0,18.99998 -2.49347,25.87856 -3,28.99998c-0.32037,1.97418 -0.49347,2.87857 -1,6c-0.48056,2.96127 -0.49347,5.87857 -1,9c-0.48056,2.96127 -0.49347,4.87857 -1,8c-0.32037,1.97418 -2,6 -2,8c0,2 0,5 0,11c0,1 0.51126,5.02997 1,9c0.50378,4.09222 3,4 3,6c0,0 0,2 -1,2c-1,0 -1,0 -1,4c0,1 1,3 1,6l3,0l0,1" id="svg_4" fill-opacity="null" stroke-opacity="null" stroke-width="1.5" stroke="#000" fill="none"/>
  <path d="m280.5,275.66666c2,0 3.01498,-0.75565 5,-1c8.18442,-1.00754 18.04486,-5.59109 29,-7c12.06616,-1.55179 28.01233,-3.45624 40,-4c11.03403,-0.50052 18.133,-2.56952 22,-4c2.09717,-0.77579 2,-1 3,-1c1,0 1.29291,-0.70709 2,0c1.41422,1.41422 -1.38055,5.76303 -5,12c-2.24469,3.86798 -5.40533,10.08273 -12,13c-3.77063,1.66803 -11.64749,3.9725 -16,5c-3.89301,0.91901 -8.06332,1.77417 -12,3c-8.15765,2.54022 -11.95798,3.13083 -18,5c-6.9549,2.15158 -14,4 -23,7l-3,1l-3,1l-1,0" id="svg_5" fill-opacity="null" stroke-opacity="null" stroke-width="1.5" stroke="#000" fill="none"/>
  <path d="m278.5,290.66666c3,0 4.07181,-0.69125 9,-2c3.05634,-0.81165 7.05972,-0.90884 17,-2c9.16449,-1.00601 20,-4 32,-4c6,0 12.22836,0.14804 15,-1c1.30655,-0.5412 2,-1 3,-1l0,-1" id="svg_6" fill-opacity="null" stroke-opacity="null" stroke-width="1.5" stroke="#000" fill="none"/>
  <path d="m257.5,288.66666c-1,0 -1.93163,-0.07339 -3,-1c-3.77727,-3.276 -5.71413,-5.21167 -8,-8c-3.58638,-4.37469 -8,-7 -9,-8c-3,-3 -4.1731,-4.85272 -5,-6c-1.30745,-1.814 -1.61064,-3.15927 -3,-6c-1.58411,-3.23892 -3,-4.99998 -5,-7.99998c-2,-3 -7.04291,-6.71022 -8,-7c-3.45085,-1.04483 -3.82375,-3.48625 -6,-4c-2.91975,-0.68925 -8,0 -11,0c-5,0 -10,0 -15,0c-3,0 -9.88731,0.37669 -16,2c-4.92821,1.30876 -8.79626,1.16124 -12,5c-1.43275,1.71675 -2.9176,2.38687 -4,5c-0.38269,0.92387 0,3.99998 0,5.99998c0,3 0,6 0,10c0,2 1.81265,4.20682 4,6c2.78833,2.28589 6.94298,4.11835 11,6c6.90886,3.20432 13.26601,5.13901 21,8c8.3887,3.10318 16.42653,9.30603 38,18c20.53145,8.27405 34.2981,9.83838 52,15c11.23676,3.27649 20,7 22,7c1,0 2,0 4,-2c1,-1 1,-2 0,-4l-3,-2" id="svg_7" fill-opacity="null" stroke-opacity="null" stroke-width="1.5" stroke="#000" fill="none"/>
  <path d="m206.5,263.66666c0,0 0.06601,-0.12234 2,1c6.23695,3.61945 15.75305,8.58344 27,13c11.77385,4.62347 26.0271,7.88177 35,10c4.01282,0.9473 5,2 6,2l1,0" id="svg_8" fill-opacity="null" stroke-opacity="null" stroke-width="1.5" stroke="#000" fill="none"/>
 </g>

</svg>